<svg width="600" height="300" viewBox="0 0 664 344" fill="none" xmlns="http://www.w3.org/2000/svg">
<path d="M424.598 245.359C424.591 245.314 424.583 245.277 424.568 245.232C424.552 245.165 424.537 245.097 424.522 245.03C424.168 243.536 423.677 242.752 423.016 241.84C422.863 241.631 422.701 241.429 422.533 241.242C420.597 239.165 418.163 238.12 415.29 238.12C413.424 238.12 411.719 238.56 410.222 239.434C408.732 240.301 407.549 241.511 406.697 243.013C406.251 243.805 405.921 244.657 405.706 245.538H403.487C403.487 244.769 403.487 244.044 403.479 243.529V243.252C403.479 240.622 400.983 238.224 398.287 238.022C396.421 237.866 394.693 238.575 393.541 239.972C392.359 241.407 391.998 243.327 392.574 245.097C393.319 247.765 395.999 249.752 398.84 249.767C398.779 250.118 398.671 250.477 398.51 250.85C397.934 252.15 397.005 253.099 395.553 253.458C394.117 253.809 392.566 253.585 391.46 252.681C390.846 252.18 390.262 251.612 389.947 250.88C389.763 250.454 389.724 250.013 389.717 249.565V249.012V248.99V242.886V240.675V241.698C389.717 241.698 389.717 241.541 389.717 241.534V239.935C389.717 239.786 389.594 239.659 389.433 239.659H385.455C385.301 239.659 385.17 239.778 385.17 239.935V249.602C385.17 250.589 384.84 251.567 384.164 252.3C383.343 253.189 382.206 253.652 380.993 253.585C380.87 253.585 380.755 253.57 380.632 253.555C379.111 253.338 377.829 252.24 377.368 250.753L374.926 242.266C374.142 239.718 371.777 238 369.043 238H367.392C367.177 238 367 238.172 367 238.381V242.019C367 242.229 367.177 242.4 367.392 242.4H369.043C369.749 242.4 370.394 242.864 370.594 243.521L373.059 252.098C374.065 255.37 376.953 257.664 380.432 257.963L380.601 257.977C380.762 257.992 380.931 257.992 381.108 258C383.619 258.015 385.969 256.954 387.628 255.049C389.356 256.857 391.829 257.925 394.317 257.925C394.67 257.925 395.039 257.903 395.408 257.858C399.263 257.455 402.596 254.466 403.318 250.753C403.379 250.424 403.425 250.081 403.456 249.752H405.583C405.783 250.858 406.152 251.896 406.697 252.852C407.549 254.347 408.732 255.542 410.237 256.424C411.742 257.305 413.44 257.753 415.29 257.753C416.803 257.753 418.201 257.462 419.461 256.872C420.712 256.297 421.788 255.505 422.632 254.533C423.416 253.637 423.984 252.651 424.322 251.612C424.368 251.485 424.345 251.343 424.261 251.231C424.176 251.119 424.038 251.052 423.9 251.052H419.522C419.345 251.052 419.2 251.156 419.13 251.313C418.938 251.747 418.685 252.12 418.355 252.434C418.001 252.77 417.564 253.032 417.042 253.204C416.519 253.383 415.897 253.472 415.206 253.472C414.285 253.472 413.432 253.248 412.679 252.8C411.927 252.359 411.32 251.709 410.882 250.865C410.637 250.402 410.429 249.961 410.352 249.744H424.245C424.468 249.744 424.66 249.58 424.691 249.371C424.929 247.75 424.821 246.39 424.614 245.351L424.598 245.359ZM398.963 244.462C398.963 244.746 398.963 244.941 398.963 245.03C398.963 245.09 398.963 245.239 398.963 245.523C397.919 245.501 396.943 244.806 396.675 243.88C396.529 243.454 396.567 243.021 396.775 242.699C396.943 242.438 397.212 242.273 397.566 242.206C397.711 242.176 397.85 242.184 398.019 242.206C398.848 242.453 398.956 242.931 398.971 243.446C398.979 243.775 398.971 244.104 398.971 244.433V244.462H398.963ZM410.575 245.531C410.675 245.232 410.79 244.978 410.905 244.754C411.366 243.932 411.988 243.304 412.741 242.901C413.509 242.49 414.354 242.288 415.275 242.288C416.066 242.288 416.819 242.453 417.525 242.766C418.216 243.08 418.792 243.514 419.215 244.052C419.583 244.515 419.806 245 419.898 245.523H410.575V245.531Z" fill="#D4ED6D"/>
<path d="M449.88 238C447.134 238 444.675 239.295 443.008 241.348C441.333 239.295 438.873 238 436.135 238C431.11 238 427.029 242.339 427.029 247.668V257.508C427.029 257.781 427.24 258 427.504 258H431.005C431.269 258 431.48 257.781 431.48 257.508V247.668C431.48 244.875 433.562 242.604 436.127 242.604C438.692 242.604 440.774 244.875 440.774 247.668V257.508C440.774 257.781 440.986 258 441.25 258H444.75C445.014 258 445.226 257.781 445.226 257.508V247.668C445.226 244.875 447.308 242.604 449.873 242.604C452.438 242.604 454.52 244.875 454.52 247.668V257.508C454.52 257.781 454.731 258 454.995 258H458.496C458.76 258 458.971 257.781 458.971 257.508V247.668C458.978 242.339 454.897 238 449.88 238Z" fill="#D4ED6D"/>
<path d="M479.469 242.361C479.064 241.721 478.579 241.135 478.025 240.618C476.159 238.883 473.871 238 471.225 238C469.327 238 467.594 238.449 466.072 239.339C464.768 240.1 463.651 241.158 462.831 242.414C462.019 243.677 461.48 245.108 461.27 246.584C461.215 246.988 461.176 247.384 461.176 247.787C461.145 249.286 461.457 250.785 462.066 252.163C462.675 253.525 463.573 254.743 464.736 255.709C465.158 256.059 465.611 256.371 466.079 256.645C467.601 257.543 469.335 258 471.217 258C472.755 258 474.176 257.703 475.457 257.11C476.729 256.516 477.814 255.717 478.681 254.728C479.461 253.83 480.031 252.848 480.375 251.805C480.422 251.661 480.406 251.493 480.313 251.371C480.219 251.25 480.079 251.174 479.922 251.174H475.558C475.354 251.174 475.175 251.288 475.098 251.47C474.91 251.896 474.645 252.277 474.325 252.589C472.981 253.868 470.623 253.951 468.999 253.183C467.547 252.498 466.704 251.227 466.196 249.781H480.454C480.696 249.781 480.891 249.598 480.906 249.37C480.945 248.898 480.953 248.624 480.961 248.358C480.961 248.251 480.968 248.152 480.976 248.046C480.992 247.924 481 247.795 481 247.68C481 245.77 480.477 243.982 479.461 242.361H479.469ZM466.431 245.557C466.532 245.26 466.649 244.994 466.766 244.773C467.235 243.936 467.867 243.304 468.632 242.893C469.406 242.482 470.272 242.269 471.201 242.269C472.006 242.269 472.77 242.429 473.481 242.756C474.192 243.084 474.77 243.517 475.199 244.065C475.566 244.53 475.8 245.032 475.894 245.565H466.423L466.431 245.557Z" fill="#D4ED6D"/>
<path d="M23.52 147.37C26.9267 147.37 29.9133 147.86 32.48 148.84C35.0933 149.773 36.4 151.057 36.4 152.69C36.4 154.323 35.77 156.353 34.51 158.78C33.2967 161.16 32.27 162.35 31.43 162.35C31.1967 162.35 30.9167 162.233 30.59 162C30.31 161.72 29.61 161.44 28.49 161.16C27.4167 160.833 26.4833 160.67 25.69 160.67C22.9833 160.67 20.79 161.627 19.11 163.54C17.4767 165.453 16.66 168.393 16.66 172.36C16.66 176.28 17.5 179.197 19.18 181.11C20.9067 183.023 23.0767 183.98 25.69 183.98C26.7633 183.98 27.9533 183.84 29.26 183.56C30.6133 183.233 31.57 182.79 32.13 182.23C32.2233 182.137 32.41 182.09 32.69 182.09C32.97 182.09 33.4833 182.627 34.23 183.7C35.0233 184.727 35.7467 186.103 36.4 187.83C37.0533 189.51 37.38 190.817 37.38 191.75C37.38 193.57 35.98 195.017 33.18 196.09C30.38 197.163 27.0667 197.7 23.24 197.7C17.08 197.7 12.0167 195.53 8.05 191.19C4.08333 186.85 2.1 180.737 2.1 172.85C2.1 164.917 4.13 158.687 8.19 154.16C12.2967 149.633 17.4067 147.37 23.52 147.37ZM56.1083 196.02C56.1083 196.767 53.8916 197.14 49.4583 197.14C44.9783 197.14 42.7383 196.79 42.7383 196.09V150.45C42.7383 148.817 43.6016 148 45.3283 148H58.6983C70.9716 148 77.1083 152.783 77.1083 162.35C77.1083 165.243 76.5483 167.88 75.4283 170.26C74.3083 172.593 72.7216 174.46 70.6683 175.86L79.4883 190.56C79.115 191.68 77.9016 192.963 75.8483 194.41C73.0483 196.417 70.7383 197.42 68.9183 197.42C67.0983 197.42 65.7449 196.767 64.8583 195.46L58.2783 180.13H56.1083V196.02ZM56.1083 160.39V170.89H56.4583C60.8916 170.89 63.1083 169.047 63.1083 165.36C63.1083 163.68 62.6649 162.443 61.7783 161.65C60.9383 160.81 59.5383 160.39 57.5783 160.39H56.1083ZM106.777 167.46C107.664 167.46 108.107 169.093 108.107 172.36C108.107 173.34 107.991 174.507 107.757 175.86C107.571 177.167 107.197 177.82 106.637 177.82H97.7473V184.82H110.627C111.421 184.82 111.957 185.847 112.237 187.9C112.377 188.787 112.447 189.743 112.447 190.77C112.447 191.75 112.307 193.033 112.027 194.62C111.747 196.207 111.281 197 110.627 197H86.6873C84.914 197 84.0273 196.277 84.0273 194.83V149.82C84.0273 148.607 84.564 148 85.6373 148H110.697C111.677 148 112.167 150.077 112.167 154.23C112.167 158.337 111.677 160.39 110.697 160.39H97.7473V167.46H106.777ZM118.549 193.78V151.78C118.549 150.613 118.829 149.703 119.389 149.05C119.995 148.35 120.765 148 121.699 148H133.389C140.809 148 146.432 149.867 150.259 153.6C154.132 157.333 156.069 163.213 156.069 171.24C156.069 188.413 148.742 197 134.089 197H122.119C119.739 197 118.549 195.927 118.549 193.78ZM131.989 161.3V182.23C131.989 183.21 132.059 183.84 132.199 184.12C132.339 184.353 132.759 184.47 133.459 184.47C136.025 184.47 137.962 183.513 139.269 181.6C140.622 179.687 141.299 176.513 141.299 172.08C141.299 167.6 140.599 164.683 139.199 163.33C137.845 161.977 135.675 161.3 132.689 161.3H131.989ZM184.434 167.46C185.32 167.46 185.764 169.093 185.764 172.36C185.764 173.34 185.647 174.507 185.414 175.86C185.227 177.167 184.854 177.82 184.294 177.82H175.404V184.82H188.284C189.077 184.82 189.614 185.847 189.894 187.9C190.034 188.787 190.104 189.743 190.104 190.77C190.104 191.75 189.964 193.033 189.684 194.62C189.404 196.207 188.937 197 188.284 197H164.344C162.57 197 161.684 196.277 161.684 194.83V149.82C161.684 148.607 162.22 148 163.294 148H188.354C189.334 148 189.824 150.077 189.824 154.23C189.824 158.337 189.334 160.39 188.354 160.39H175.404V167.46H184.434ZM234.565 195.46C234.565 196.44 232.372 196.93 227.985 196.93C223.598 196.93 221.218 196.58 220.845 195.88L209.155 174.04V195.81C209.155 196.65 206.985 197.07 202.645 197.07C198.352 197.07 196.205 196.65 196.205 195.81V148.98C196.205 148.28 198.048 147.93 201.735 147.93C203.182 147.93 204.862 148.07 206.775 148.35C208.735 148.583 209.925 149.05 210.345 149.75L221.545 171.31V149.33C221.545 148.443 223.715 148 228.055 148C232.395 148 234.565 148.443 234.565 149.33V195.46ZM262.666 195.88C262.666 196.813 260.356 197.28 255.736 197.28C251.116 197.28 248.806 196.813 248.806 195.88V160.74H240.406C239.612 160.74 239.052 159.667 238.726 157.52C238.586 156.493 238.516 155.443 238.516 154.37C238.516 153.297 238.586 152.247 238.726 151.22C239.052 149.073 239.612 148 240.406 148H270.856C271.649 148 272.209 149.073 272.536 151.22C272.676 152.247 272.746 153.297 272.746 154.37C272.746 155.443 272.676 156.493 272.536 157.52C272.209 159.667 271.649 160.74 270.856 160.74H262.666V195.88ZM281.352 184.96V160.04H276.382C275.589 160.04 275.029 159.037 274.702 157.03C274.562 156.05 274.492 155.047 274.492 154.02C274.492 152.993 274.562 151.99 274.702 151.01C275.029 149.003 275.589 148 276.382 148H299.902C300.696 148 301.232 149.003 301.512 151.01C301.699 151.99 301.792 152.993 301.792 154.02C301.792 155.047 301.699 156.05 301.512 157.03C301.232 159.037 300.696 160.04 299.902 160.04H295.212V184.96H300.112C300.906 184.96 301.466 185.963 301.792 187.97C301.979 188.95 302.072 189.953 302.072 190.98C302.072 192.007 301.979 193.01 301.792 193.99C301.466 195.997 300.906 197 300.112 197H276.522C275.729 197 275.192 195.997 274.912 193.99C274.726 193.01 274.632 192.007 274.632 190.98C274.632 189.953 274.726 188.95 274.912 187.97C275.192 185.963 275.729 184.96 276.522 184.96H281.352ZM339.642 197.14C335.582 197.14 333.389 196.487 333.062 195.18L330.752 186.15H319.622L317.592 194.83C317.312 196.277 315.072 197 310.872 197C308.632 197 306.976 196.883 305.902 196.65C304.829 196.37 304.292 196.16 304.292 196.02L316.682 148.63C316.682 148.257 319.879 148.07 326.272 148.07C332.666 148.07 335.862 148.257 335.862 148.63L347.972 196.09C347.972 196.417 346.899 196.673 344.752 196.86C342.606 197.047 340.902 197.14 339.642 197.14ZM321.372 177.26H328.722L325.572 162.77H325.152L321.372 177.26ZM351.911 192.87V149.33C351.911 148.35 354.268 147.86 358.981 147.86C363.741 147.86 366.121 148.35 366.121 149.33V183.63H376.901C377.741 183.63 378.325 184.727 378.651 186.92C378.791 187.993 378.861 189.09 378.861 190.21C378.861 191.33 378.791 192.473 378.651 193.64C378.278 195.88 377.671 197 376.831 197H355.271C354.245 197 353.428 196.58 352.821 195.74C352.215 194.9 351.911 193.943 351.911 192.87ZM384.851 179.92C385.738 180.62 387.255 181.577 389.401 182.79C391.595 184.003 393.671 184.61 395.631 184.61C397.638 184.61 398.641 183.84 398.641 182.3C398.641 181.6 398.361 180.993 397.801 180.48C397.241 179.92 396.215 179.29 394.721 178.59C393.228 177.89 392.108 177.353 391.361 176.98C390.615 176.56 389.611 175.907 388.351 175.02C387.138 174.087 386.205 173.13 385.551 172.15C383.685 169.49 382.751 166.107 382.751 162C382.751 157.893 384.268 154.44 387.301 151.64C390.381 148.793 394.395 147.37 399.341 147.37C402.701 147.37 405.805 147.743 408.651 148.49C411.498 149.19 412.968 150.123 413.061 151.29C413.061 151.43 413.061 151.57 413.061 151.71C413.061 153.343 412.548 155.42 411.521 157.94C410.495 160.413 409.771 161.79 409.351 162.07C406.365 160.53 403.681 159.76 401.301 159.76C398.968 159.76 397.801 160.6 397.801 162.28C397.801 163.307 398.665 164.217 400.391 165.01C400.765 165.197 401.301 165.453 402.001 165.78C402.701 166.107 403.495 166.503 404.381 166.97C405.315 167.39 406.295 167.95 407.321 168.65C408.395 169.303 409.538 170.19 410.751 171.31C413.225 173.643 414.461 176.723 414.461 180.55C414.461 185.543 413.085 189.627 410.331 192.8C407.578 195.973 403.331 197.607 397.591 197.7C394.791 197.7 392.248 197.467 389.961 197C387.721 196.533 385.761 195.623 384.081 194.27C382.401 192.917 381.561 191.283 381.561 189.37C381.561 187.457 381.911 185.567 382.611 183.7C383.311 181.787 384.058 180.527 384.851 179.92Z" fill="#D4ED6D"/>
</svg>
