<svg width="96.9" height="17" viewBox="0 0 114 20" fill="none" xmlns="http://www.w3.org/2000/svg">
<path d="M57.5984 7.35895C57.5907 7.31412 57.583 7.27677 57.5677 7.23194C57.5523 7.1647 57.537 7.09746 57.5216 7.03022C57.1684 5.53601 56.6769 4.75156 56.0163 3.8401C55.8628 3.63091 55.7015 3.4292 55.5325 3.24242C53.5972 1.16547 51.1627 0.119536 48.2905 0.119536C46.4243 0.119536 44.7194 0.560325 43.2218 1.43443C41.732 2.30107 40.5493 3.51138 39.6968 5.01305C39.2514 5.80497 38.9212 6.65666 38.7061 7.53825H36.4867C36.4867 6.76873 36.4867 6.04404 36.479 5.52854V5.25212C36.479 2.62233 33.9831 0.22413 31.2874 0.022413C29.4212 -0.134478 27.6933 0.575267 26.5414 1.97234C25.3586 3.40678 24.9977 5.32683 25.5737 7.09746C26.3187 9.76461 28.9989 11.7519 31.8404 11.7668C31.7789 12.1179 31.6715 12.4766 31.5101 12.8501C30.9342 14.1501 30.005 15.0989 28.5534 15.4575C27.1174 15.8086 25.566 15.5845 24.4601 14.6805C23.8458 14.1799 23.262 13.6121 22.9472 12.88C22.7628 12.4541 22.7245 12.0134 22.7168 11.5651V11.0122V10.9898V4.88604V2.67462V3.69815C22.7168 3.69815 22.7168 3.54126 22.7168 3.53379V1.93499C22.7168 1.78557 22.594 1.65856 22.4326 1.65856H18.4545C18.301 1.65856 18.1704 1.7781 18.1704 1.93499V11.6024C18.1704 12.5886 17.8402 13.5673 17.1643 14.2995C16.3426 15.1885 15.206 15.6517 13.9926 15.5845C13.8697 15.5845 13.7545 15.5695 13.6316 15.5546C12.111 15.3379 10.8285 14.2397 10.3677 12.753L7.92554 4.26595C7.1422 1.71833 4.77682 0 2.04283 0H0.391669C0.176635 0 0 0.171833 0 0.381022V4.0194C0 4.22859 0.176635 4.40042 0.391669 4.40042H2.04283C2.74936 4.40042 3.39446 4.86363 3.59414 5.52107L6.05935 14.0978C7.0654 17.3701 9.95301 19.6636 13.4319 19.9625L13.6009 19.9774C13.7622 19.9924 13.9311 19.9924 14.1078 19.9998C16.619 20.0148 18.9691 18.9539 20.6279 17.0488C22.3559 18.8568 24.8287 19.9251 27.3171 19.9251C27.6703 19.9251 28.0389 19.9027 28.4076 19.8579C32.2628 19.4545 35.5959 16.4661 36.3177 12.753C36.3792 12.4243 36.4253 12.0806 36.456 11.7519H38.5833C38.783 12.8576 39.1516 13.896 39.6968 14.8523C40.5493 16.3465 41.732 17.5419 43.2372 18.4235C44.7425 19.305 46.4396 19.7533 48.2905 19.7533C49.8034 19.7533 51.2011 19.4619 52.4606 18.8717C53.7125 18.2965 54.7876 17.5045 55.6324 16.5333C56.4157 15.6368 56.984 14.6506 57.3219 13.6121C57.368 13.4851 57.345 13.3432 57.2605 13.2311C57.1761 13.1191 57.0378 13.0518 56.8996 13.0518H52.5221C52.3454 13.0518 52.1995 13.1564 52.1304 13.3133C51.9384 13.7466 51.685 14.1202 51.3548 14.434C51.0014 14.7702 50.5637 15.0316 50.0415 15.2035C49.5193 15.3828 48.8973 15.4724 48.206 15.4724C47.2845 15.4724 46.432 15.2483 45.6793 14.8C44.9268 14.3592 44.32 13.7093 43.8823 12.865C43.6366 12.4018 43.4292 11.9611 43.3524 11.7444H57.2452C57.4679 11.7444 57.6598 11.58 57.6906 11.3708C57.9286 9.74966 57.8211 8.38994 57.6137 7.35148L57.5984 7.35895ZM31.9633 6.46242C31.9633 6.74632 31.9633 6.94057 31.9633 7.03022C31.9633 7.08999 31.9633 7.23941 31.9633 7.52331C30.9188 7.5009 29.9435 6.80608 29.6747 5.87968C29.5288 5.45383 29.5672 5.02052 29.7746 4.69926C29.9435 4.43778 30.2122 4.27342 30.5656 4.20618C30.7114 4.17629 30.8497 4.18377 31.0186 4.20618C31.8481 4.45272 31.9556 4.93086 31.971 5.44636C31.9786 5.77509 31.971 6.10381 31.971 6.43253V6.46242H31.9633ZM43.5752 7.53078C43.675 7.23194 43.7901 6.97792 43.9054 6.75379C44.3662 5.93198 44.9882 5.30441 45.7408 4.90098C46.5088 4.49008 47.3536 4.28836 48.2751 4.28836C49.0661 4.28836 49.8188 4.45272 50.5254 4.7665C51.2165 5.08028 51.7924 5.5136 52.2149 6.05151C52.5835 6.51471 52.8062 7.00034 52.8984 7.52331H43.5752V7.53078Z" fill="white"/>
<path d="M82.8804 0C80.1343 0 77.6748 1.29536 76.0076 3.34764C74.3328 1.29536 71.8734 0 69.1348 0C64.1104 0 60.0291 4.33867 60.0291 9.66836V19.5084C60.0291 19.7815 60.2403 20 60.5043 20H64.0048C64.2689 20 64.4801 19.7815 64.4801 19.5084V9.66836C64.4801 6.87476 66.5623 4.60398 69.1273 4.60398C71.6924 4.60398 73.7745 6.87476 73.7745 9.66836V19.5084C73.7745 19.7815 73.9857 20 74.2498 20H77.7503C78.0143 20 78.2256 19.7815 78.2256 19.5084V9.66836C78.2256 6.87476 80.3077 4.60398 82.8728 4.60398C85.4378 4.60398 87.5199 6.87476 87.5199 9.66836V19.5084C87.5199 19.7815 87.7313 20 87.9953 20H91.4957C91.7599 20 91.9711 19.7815 91.9711 19.5084V9.66836C91.9786 4.33867 87.8972 0 82.8804 0Z" fill="white"/>
<path d="M112.469 4.36073C112.064 3.72146 111.579 3.13546 111.025 2.61796C109.159 0.882801 106.871 0 104.225 0C102.327 0 100.593 0.449011 99.0714 1.33942C97.7675 2.10046 96.651 3.1583 95.8312 4.414C95.0192 5.67732 94.4804 7.10807 94.2697 8.58447C94.2149 8.98782 94.176 9.38356 94.176 9.78691C94.1446 11.2861 94.457 12.7854 95.066 14.1629C95.675 15.5251 96.573 16.7428 97.7362 17.7093C98.1579 18.0594 98.6108 18.3714 99.0793 18.6454C100.601 19.5434 102.335 20 104.217 20C105.755 20 107.176 19.7032 108.457 19.1096C109.729 18.516 110.814 17.7169 111.681 16.7275C112.461 15.8295 113.031 14.8478 113.375 13.8052C113.422 13.6606 113.406 13.4931 113.313 13.3714C113.219 13.2496 113.079 13.1735 112.922 13.1735H108.558C108.354 13.1735 108.175 13.2877 108.098 13.4703C107.91 13.8965 107.645 14.277 107.324 14.589C105.981 15.8676 103.623 15.9513 101.999 15.1826C100.547 14.4977 99.7038 13.2268 99.1963 11.7808H113.454C113.696 11.7808 113.891 11.5982 113.906 11.3699C113.945 10.898 113.953 10.624 113.961 10.3577C113.961 10.2511 113.968 10.1522 113.976 10.0457C113.992 9.9239 114 9.79452 114 9.68036C114 7.77017 113.477 5.98173 112.461 4.36073H112.469ZM99.4306 7.55708C99.5321 7.26027 99.6492 6.99391 99.7663 6.77321C100.235 5.93607 100.867 5.30441 101.632 4.89346C102.406 4.4825 103.272 4.26941 104.201 4.26941C105.006 4.26941 105.77 4.42922 106.481 4.75647C107.192 5.08371 107.77 5.5175 108.199 6.06545C108.566 6.52968 108.8 7.03196 108.894 7.56469H99.4228L99.4306 7.55708Z" fill="white"/>
</svg>
